# xmcd
#
# Track frame offsets: 
#        150
#        27998
#        55660
#        78776
#        110775
#        145531
#        176519
#        206605
#        226243
#        256844
#
# Disc length: 4008 seconds
#
# Revision: 1
# Processed by: cddbd v1.5.2PL0 Copyright (c) Steve Scherf et al.
# Submitted via: ExactAudioCopyFreeDBPlugin 1.0
#
DISCID=790fa60a
DTITLE=Slyde Hyde - Late Night Jazz
DYEAR=2000
DGENRE=Jazz
TTITLE0=It Might As Well Be Spring
TTITLE1=What Are You Doing The Rest Of Your Life
TTITLE2=Bewitched, Bothered, and Bewildered
TTITLE3=But Beautiful
TTITLE4=When I Fall In Love
TTITLE5=The Very Thought Of You
TTITLE6=Angel Eyes
TTITLE7=Lush Life
TTITLE8=Someone To Watch Over Me
TTITLE9=I Got It Bad And That Ain't Good
EXTD=YEAR: 2000
EXTT0=
EXTT1=
EXTT2=
EXTT3=
EXTT4=
EXTT5=
EXTT6=
EXTT7=
EXTT8=
EXTT9=
PLAYORDER=
